HIERARCHY
ROOT Hips
{
 OFFSET 0.000000 0.000000 0.000000
 CHANNELS 6 Xposition Yposition Zposition Yrotation Xrotation Zrotation
 JOINT Chest
 {
  OFFSET 0.000000 9.585900 0.002600
  CHANNELS 3 Yrotation Xrotation Zrotation
  JOINT Chest2
  {
   OFFSET 0.000000 9.601200 -0.005300
   CHANNELS 3 Yrotation Xrotation Zrotation
   JOINT Chest3
   {
    OFFSET 0.000000 9.561800 0.000000
    CHANNELS 3 Yrotation Xrotation Zrotation
    JOINT Chest4
    {
     OFFSET 0.000000 9.552100 0.000000
     CHANNELS 3 Yrotation Xrotation Zrotation
     JOINT Neck
     {
      OFFSET 0.000000 14.453000 0.000000
      CHANNELS 3 Yrotation Xrotation Zrotation
      JOINT Head
      {
       OFFSET 0.000000 8.936500 -0.011300
       CHANNELS 3 Yrotation Xrotation Zrotation
       End Site
       {
        OFFSET 0.000000 17.073600 -0.006000
       }
      }
     }
     JOINT RightCollar
     {
      OFFSET -2.921100 9.558500 0.000000
      CHANNELS 3 Yrotation Xrotation Zrotation
      JOINT RightShoulder
      {
       OFFSET -13.519700 0.000000 0.000000
       CHANNELS 3 Yrotation Xrotation Zrotation
       JOINT RightElbow
       {
        OFFSET 0.000000 -29.696600 0.000000
        CHANNELS 3 Yrotation Xrotation Zrotation
        JOINT RightWrist
        {
         OFFSET 0.000000 -24.004700 0.000000
         CHANNELS 3 Yrotation Xrotation Zrotation
         End Site
         {
          OFFSET 0.000000 -17.728500 0.000000
         }
        }
       }
      }
     }
     JOINT LeftCollar
     {
      OFFSET 2.921100 9.558500 0.000000
      CHANNELS 3 Yrotation Xrotation Zrotation
      JOINT LeftShoulder
      {
       OFFSET 13.519700 0.000000 0.000000
       CHANNELS 3 Yrotation Xrotation Zrotation
       JOINT LeftElbow
       {
        OFFSET 0.000000 -29.696600 0.000000
        CHANNELS 3 Yrotation Xrotation Zrotation
        JOINT LeftWrist
        {
         OFFSET 0.000000 -24.004700 0.000000
         CHANNELS 3 Yrotation Xrotation Zrotation
         End Site
         {
          OFFSET 0.000000 -17.728500 0.000000
         }
        }
       }
      }
     }
    }
   }
  }
 }
 JOINT RightHip
 {
  OFFSET -7.771700 -0.012900 -0.001300
  CHANNELS 3 Yrotation Xrotation Zrotation
  JOINT RightKnee
  {
   OFFSET 0.000000 -40.869800 0.001200
   CHANNELS 3 Yrotation Xrotation Zrotation
   JOINT RightAnkle
   {
    OFFSET 0.000000 -39.717900 0.002100
    CHANNELS 3 Yrotation Xrotation Zrotation
    JOINT RightToe
    {
     OFFSET 0.000000 -4.965400 11.033500
     CHANNELS 3 Yrotation Xrotation Zrotation
     End Site
     {
      OFFSET 0.000000 -1.423100 5.872300
     }
    }
   }
  }
 }
 JOINT LeftHip
 {
  OFFSET 7.771700 -0.012900 -0.001300
  CHANNELS 3 Yrotation Xrotation Zrotation
  JOINT LeftKnee
  {
   OFFSET 0.000000 -40.869800 0.001200
   CHANNELS 3 Yrotation Xrotation Zrotation
   JOINT LeftAnkle
   {
    OFFSET 0.000000 -39.717900 0.002100
    CHANNELS 3 Yrotation Xrotation Zrotation
    JOINT LeftToe
    {
     OFFSET 0.000000 -4.965400 11.033500
     CHANNELS 3 Yrotation Xrotation Zrotation
     End Site
     {
      OFFSET 0.000000 -1.423100 5.872300
     }
    }
   }
  }
 }
}
MOTION
Frames: 16
Frame Time: 0.008333
0.000000 85.388000 0.000000 0.000000 -5.767877 0.000000 0.000000 11.653817 0.000000 0.000000 -5.885947 0.000000 0.000000 -0.000000 0.000000 0.000000 -0.000000 0.000000 0.000000 12.528835 0.000000 0.000000 0.711642 0.000000 0.000000 -0.000000 0.000000 0.000000 0.000000 -90.000000 0.000000 -2.309062 0.000000 0.000000 2.309062 0.000000 0.000000 -0.000000 0.000000 0.000000 -0.000000 90.000000 0.000000 -2.309062 0.000000 0.000000 2.309062 0.000000 0.000000 8.520406 0.000000 0.000000 1.905762 0.000000 -0.000000 -4.658285 0.000000 0.000000 -0.000000 0.000000 0.000000 8.520406 0.000000 0.000000 1.905762 0.000000 -0.000000 -4.658285 0.000000 0.000000 -0.000000 0.000000
-101.793525 57.666178 94.126598 175.204251 -31.449769 -1.397133 2.745173 20.718202 3.333792 0.277212 2.724347 0.420135 0.463458 4.447003 0.693385 2.246865 17.693439 3.090540 -3.888494 8.798407 -5.123325 -5.160545 -19.499948 -8.173139 6.594817 -2.372195 0.242735 24.281480 -30.936932 -26.860277 170.250902 -71.123974 -135.430736 18.527595 -19.228868 -45.730470 -7.591600 -5.480628 -4.024966 -6.237116 -26.304713 0.519773 111.391739 -77.669760 -137.833166 -0.525640 -9.557271 19.225465 9.127861 -44.361686 -2.973420 -12.804085 68.302022 -16.047963 10.479225 21.672971 9.269456 -0.210717 -15.858970 2.512456 -6.471691 -41.299162 3.646203 27.292736 66.311155 25.038355 -15.371216 4.591831 -2.789251 0.033845 0.324520 0.021700
-101.797003 57.665567 94.124165 175.212899 -31.448407 -1.393558 2.744030 20.716805 3.343152 0.286607 2.729539 0.427920 0.473821 4.456200 0.704260 2.231435 17.693325 3.082608 -3.934495 8.707269 -5.166894 -5.226757 -19.670252 -8.237600 6.483589 -2.330177 0.220730 24.043196 -30.686829 -26.829094 169.930843 -71.774661 -135.371363 18.003956 -19.128745 -45.382536 -7.572454 -5.567457 -4.018694 -6.330291 -26.345362 0.491970 104.246417 -78.122306 -130.771130 -0.271810 -10.031090 20.241957 9.154317 -44.366249 -3.015761 -12.798457 68.319723 -16.017369 10.487161 21.664167 9.268541 -0.210732 -15.846413 2.508403 -6.466733 -41.303783 3.641998 27.271681 66.321007 25.008334 -15.378457 4.595626 -2.778908 0.035548 0.315673 0.021642
-101.801223 57.664916 94.120774 175.227144 -31.449265 -1.390080 2.770418 20.731130 3.365397 0.256527 2.719117 0.414726 0.486859 4.465750 0.711634 2.219563 17.688267 3.081320 -3.949003 8.632976 -5.197076 -5.267891 -19.830574 -8.292618 6.430098 -2.318218 0.200488 23.709395 -30.376441 -26.751824 169.657896 -72.467017 -135.380250 17.463259 -19.022973 -44.945473 -7.551574 -5.653995 -4.009166 -6.456804 -26.365003 0.467661 96.666575 -78.466385 -123.203233 0.003528 -10.479014 21.218421 9.189770 -44.368857 -3.072581 -12.789178 68.340971 -15.973924 10.495139 21.658732 9.270722 -0.218907 -15.844430 2.502905 -6.461254 -41.306823 3.631550 27.255956 66.332255 24.985680 -15.393153 4.593422 -2.766388 0.048371 0.312156 0.019988
-101.804991 57.663942 94.117169 175.233084 -31.448543 -1.386241 2.774280 20.734338 3.366725 0.265990 2.725123 0.420240 0.478354 4.463165 0.708663 2.249171 17.708282 3.105291 -3.972243 8.546827 -5.228506 -5.281963 -19.980345 -8.343290 6.376891 -2.338721 0.174892 23.299463 -30.020169 -26.645923 169.464569 -73.184144 -135.471961 16.923797 -18.929112 -44.474155 -7.577786 -5.773504 -4.024549 -6.623859 -26.336700 0.441890 89.163620 -78.753775 -115.590006 0.268150 -10.824940 22.049879 9.218294 -44.371458 -3.108621 -12.791871 68.351931 -15.955419 10.500653 21.660887 9.272757 -0.221758 -15.844211 2.500870 -6.455442 -41.309354 3.624757 27.278892 66.338628 24.988782 -15.378713 4.587211 -2.737610 0.025981 0.315388 0.014573
-101.807701 57.663228 94.112532 175.259008 -31.452280 -1.399370 2.764968 20.742396 3.376062 0.302626 2.746265 0.445169 0.441503 4.445454 0.687624 2.278494 17.731610 3.134219 -3.981433 8.463987 -5.255679 -5.267790 -20.122381 -8.392374 6.221029 -2.313995 0.085293 22.908077 -29.705325 -26.459056 169.358792 -73.905304 -135.646306 16.436551 -18.878805 -44.040165 -7.629611 -5.899561 -4.062638 -6.833069 -26.251528 0.397803 82.116152 -79.083715 -108.261752 0.492777 -11.012214 22.658335 9.205838 -44.369123 -3.119178 -12.758412 68.372434 -15.912866 10.479042 21.647580 9.259169 -0.215561 -15.835083 2.505537 -6.470444 -41.306736 3.622376 27.277596 66.341397 24.987141 -15.386456 4.584572 -2.737510 0.038890 0.314263 0.018223
-101.813943 57.662946 94.106279 175.304859 -31.462213 -1.401477 2.743056 20.763322 3.378922 0.296173 2.746764 0.440914 0.449932 4.453671 0.696893 2.277263 17.744613 3.141723 -3.965630 8.389107 -5.275043 -5.224777 -20.260582 -8.439341 6.097089 -2.308846 0.008657 22.440273 -29.340338 -26.239746 169.312642 -74.596404 -135.885370 16.083772 -18.879079 -43.726059 -7.688990 -6.012042 -4.110521 -7.072127 -26.110572 0.319470 75.621853 -79.540414 -101.307210 0.642815 -11.022978 23.025450 9.229269 -44.359731 -3.185539 -12.737409 68.409817 -15.857869 10.448667 21.623956 9.239326 -0.208036 -15.829803 2.512518 -6.467942 -41.298768 3.583592 27.269609 66.340298 24.978194 -15.393862 4.585895 -2.728195 0.041855 0.313696 0.021898
-101.819813 57.661226 94.102187 175.305064 -31.456804 -1.383461 2.759302 20.768638 3.381222 0.279703 2.739402 0.431179 0.467739 4.470345 0.711245 2.263014 17.742435 3.136813 -3.923330 8.336889 -5.285732 -5.155773 -20.398055 -8.479825 5.987737 -2.297629 -0.051828 21.930320 -28.935176 -25.990925 169.223934 -75.202422 -136.103544 15.899061 -18.901283 -43.569747 -7.749544 -6.088217 -4.157002 -7.303105 -25.913534 0.201911 69.580560 -80.157875 -94.674841 0.684570 -10.858761 23.198697 9.305315 -44.373875 -3.261947 -12.763933 68.436611 -15.838742 10.444232 21.628707 9.230941 -0.201702 -15.840543 2.513872 -6.428731 -41.304081 3.548965 27.269274 66.338195 24.979111 -15.403193 4.579089 -2.712790 0.038890 0.317359 0.019674
-101.823272 57.660254 94.097122 175.316694 -31.459039 -1.385985 2.791901 20.810949 3.406400 0.261701 2.721973 0.428713 0.468359 4.477345 0.714139 2.251115 17.732285 3.134945 -3.870786 8.285426 -5.298429 -5.063954 -20.534155 -8.510690 5.861835 -2.286840 -0.113000 21.403519 -28.504600 -25.712357 168.981204 -75.673731 -136.185532 15.838031 -18.926976 -43.547719 -7.819493 -6.139725 -4.205814 -7.481381 -25.667936 0.048675 63.796546 -80.932793 -88.249111 0.592204 -10.513058 23.227664 9.305863 -44.373191 -3.274328 -12.783412 68.446868 -15.847912 10.437102 21.624171 9.218668 -0.198664 -15.834645 2.518903 -6.383476 -41.302575 3.526857 27.254887 66.344160 24.967693 -15.408696 4.566686 -2.678763 0.027700 0.324919 0.015304
-101.826878 57.658873 94.092909 175.327758 -31.455726 -1.388833 2.800993 20.827443 3.410756 0.264023 2.727777 0.433914 0.488234 4.515011 0.712680 2.252364 17.743345 3.132433 -3.829298 8.179283 -5.291583 -4.950834 -20.666083 -8.533435 5.696260 -2.327616 -0.161125 20.857993 -28.059502 -25.408413 168.576432 -75.995446 -136.107045 15.849980 -18.981495 -43.600040 -7.919576 -6.211332 -4.231518 -7.577609 -25.383348 -0.132891 57.983869 -81.834797 -81.811397 0.351743 -9.991497 23.096113 9.318974 -44.379206 -3.296756 -12.828019 68.455853 -15.872387 10.443383 21.625087 9.205072 -0.191159 -15.833274 2.525053 -6.368252 -41.307524 3.518848 27.238200 66.354327 24.949905 -15.418969 4.551937 -2.661584 0.017096 0.327969 0.011760
-101.831829 57.657517 94.088763 175.340742 -31.452425 -1.386022 2.804209 20.840240 3.402640 0.266026 2.737515 0.438049 0.480074 4.503345 0.711513 2.266619 17.773991 3.119576 -3.765055 8.099099 -5.279077 -4.817166 -20.791462 -8.551023 5.527632 -2.330183 -0.197707 20.293283 -27.610694 -25.085428 168.102153 -76.181660 -135.950457 15.909965 -19.094648 -43.693206 -8.004243 -6.221107 -4.253745 -7.576711 -25.065393 -0.339510 51.785088 -82.801435 -75.048993 -0.021146 -9.308840 22.752131 9.311036 -44.381554 -3.319085 -12.845131 68.460323 -15.882059 10.455842 21.622324 9.201735 -0.183646 -15.826997 2.518637 -6.360365 -41.313017 3.504950 27.237457 66.362706 24.940289 -15.418838 4.542595 -2.640402 0.004275 0.329763 0.005940
-101.835250 57.656082 94.085235 175.344624 -31.448094 -1.389039 2.809508 20.842272 3.403104 0.276278 2.750514 0.437420 0.472036 4.495960 0.713116 2.265414 17.775257 3.113475 -3.687685 8.040101 -5.280293 -4.661838 -20.910116 -8.565665 5.354945 -2.288264 -0.242884 19.709685 -27.165775 -24.757617 167.695192 -76.260986 -135.842859 15.980626 -19.254689 -43.864160 -8.068367 -6.173221 -4.291109 -7.470357 -24.726292 -0.573922 44.805205 -83.748941 -67.603406 -0.440250 -8.538498 22.200696 9.304244 -44.387030 -3.319668 -12.883778 68.460596 -15.915791 10.457067 21.624436 9.193583 -0.180763 -15.819862 2.520442 -6.353662 -41.318709 3.504909 27.241915 66.368918 24.938004 -15.421501 4.535290 -2.622084 0.001792 0.329902 0.000033
-101.837141 57.654513 94.082407 175.348703 -31.442283 -1.402068 2.817085 20.840982 3.411837 0.282921 2.757578 0.431060 0.472676 4.498637 0.711027 2.262360 17.769914 3.116626 -3.610122 7.973675 -5.279503 -4.485439 -21.023255 -8.578538 5.171894 -2.232110 -0.284786 19.103587 -26.725225 -24.439208 167.499594 -76.276917 -135.920272 16.020485 -19.444090 -44.194305 -8.121503 -6.095925 -4.325345 -7.253829 -24.378233 -0.836250 36.748444 -84.581778 -59.209033 -0.779518 -7.886268 21.597111 9.276679 -44.393987 -3.305192 -12.880529 68.461962 -15.915728 10.472618 21.618956 9.196817 -0.201982 -15.808911 2.519933 -6.346074 -41.329155 3.522426 27.229314 66.383300 24.923098 -15.436061 4.530428 -2.617662 0.010963 0.326438 0.008146
-101.835564 57.653311 94.079597 175.362600 -31.440741 -1.440107 2.818538 20.844683 3.415711 0.281688 2.755860 0.426146 0.476024 4.499543 0.727537 2.238636 17.766230 3.059552 -3.491175 7.909863 -5.227194 -4.294883 -21.132777 -8.588740 5.009008 -2.167606 -0.270183 18.475061 -26.282051 -24.136135 167.669177 -76.275346 -136.335426 16.014812 -19.649218 -44.721450 -8.134817 -5.979654 -4.304193 -6.926319 -24.023368 -1.117094 28.035471 -85.222564 -50.293533 -1.006148 -7.529888 21.173676 9.214334 -44.397501 -3.266436 -12.836413 68.464592 -15.877736 10.521165 21.578187 9.229137 -0.241241 -15.770737 2.497648 -6.377033 -41.332976 3.569826 27.238441 66.398144 24.919838 -15.432115 4.557046 -2.599667 -0.003512 0.290779 0.005160
-101.838767 57.652078 94.076378 175.358731 -31.441191 -1.437822 2.820633 20.844881 3.392599 0.281840 2.753729 0.423364 0.471665 4.494293 0.705949 2.253710 17.768247 3.086444 -3.394945 7.841081 -5.227202 -4.097403 -21.244495 -8.594582 4.816691 -2.096372 -0.298596 17.817477 -25.832332 -23.846924 168.314465 -76.293568 -137.197880 15.973034 -19.855255 -45.405724 -8.148933 -5.843571 -4.324910 -6.501300 -23.663581 -1.398381 19.656847 -85.686801 -41.820764 -1.151203 -7.483237 21.046910 9.207526 -44.394745 -3.264723 -12.821359 68.464888 -15.867822 10.518256 21.569179 9.231863 -0.244226 -15.756370 2.494044 -6.371976 -41.334630 3.573365 27.259370 66.407952 24.925359 -15.429439 4.546720 -2.581684 -0.015140 0.291311 0.000841
-101.839582 57.650560 94.073999 175.358312 -31.438535 -1.447935 2.822852 20.842207 3.374080 0.282740 2.751663 0.420287 0.472286 4.489466 0.693531 2.265038 17.767381 3.109019 -3.295237 7.770173 -5.231985 -3.895101 -21.365120 -8.596669 4.617783 -2.028899 -0.322872 17.117715 -25.377169 -23.562549 169.463991 -76.350552 -138.538073 15.912805 -20.053393 -46.169146 -8.144559 -5.685762 -4.335116 -6.008375 -23.300749 -1.670600 12.071423 -86.026749 -34.203317 -1.170065 -7.695479 21.189945 9.187552 -44.397094 -3.244374 -12.815876 68.464320 -15.868111 10.516193 21.560541 9.228380 -0.243114 -15.742635 2.494949 -6.381458 -41.340018 3.600904 27.264454 66.423295 24.912268 -15.435373 4.536531 -2.568980 -0.018958 0.291935 0.000878
